<?xml version="1.0" ?><svg id="Layer_1" style="enable-background:new 0 0 512 512;" version="1.1" viewBox="0 0 512 512" xml:space="preserve" xmlns="http://www.w3.org/2000/svg" xmlns:xlink="http://www.w3.org/1999/xlink"><g id="XMLID_160_"><path d="M448,179.6c0-0.3,0-0.7,0-1c0-35.9-28.4-65.2-64-66.7V104c1.8-1,3.1-2.9,3.1-5.1c0-3.2-2.6-5.8-5.8-5.8   c-3.2,0-5.8,2.6-5.8,5.8c0,2.2,1.2,4.2,3.1,5.1v7.9c-35.6,1.4-64,30.7-64,66.7c0,0.3,0,0.7,0,1H448z" id="XMLID_179_"/><path d="M475.2,200.9c1-0.9,1.7-2.3,1.7-3.8c0-2.8-2.3-5.1-5.1-5.1h-18.1v-8.6H309v8.6h-18.1   c-2.8,0-5.1,2.3-5.1,5.1c0,1.5,0.7,2.9,1.7,3.8h-72.5v-31.5h-26.2c0.3-2.4,0.5-4.9,0.5-7.3c0-31.6-25.6-57.3-57.3-57.3   c-31.6,0-57.3,25.6-57.3,57.3c0,2.5,0.2,4.9,0.5,7.3H49v31.5H6v48.7h7.7v169.3l14.5-2.6l30-166.7h395.4l30,166.7l14.5,2.6V249.6   h7.7v-48.7H475.2z M164.4,175.3c-1.8,4.2-4.3,8-7.6,11.2s-7,5.8-11.2,7.6c-4.3,1.8-9,2.8-13.7,2.8c-4.8,0-9.4-0.9-13.7-2.8   c-4.2-1.8-8-4.3-11.2-7.6c-3.2-3.2-5.8-7-7.6-11.2c-1.8-4.3-2.8-9-2.8-13.7s0.9-9.4,2.8-13.7c1.8-4.2,4.3-8,7.6-11.2   c3.2-3.2,7-5.8,11.2-7.6c4.3-1.8,9-2.8,13.7-2.8c4.8,0,9.4,0.9,13.7,2.8c4.2,1.8,8,4.3,11.2,7.6s5.8,7,7.6,11.2   c1.8,4.3,2.8,9,2.8,13.7S166.3,171,164.4,175.3z" id="XMLID_176_"/><path d="M132,131.9c-16.4,0-29.7,13.3-29.7,29.7c0,16.4,13.3,29.7,29.7,29.7c16.4,0,29.7-13.3,29.7-29.7   C161.7,145.2,148.4,131.9,132,131.9z M131,134.3c0-0.4,0.3-0.7,0.7-0.7h0.5c0.4,0,0.7,0.3,0.7,0.7v5.2c0,0.4-0.3,0.7-0.7,0.7h-0.5   c-0.4,0-0.7-0.3-0.7-0.7V134.3z M104,161.9v-0.5c0-0.4,0.3-0.7,0.7-0.7h5.2c0.4,0,0.7,0.3,0.7,0.7v0.5c0,0.4-0.3,0.7-0.7,0.7h-5.2   C104.3,162.6,104,162.3,104,161.9z M113,173.2l-4.3,2.5c-0.2,0.1-0.4,0-0.5-0.1l-0.1-0.2c-0.1-0.2,0-0.4,0.1-0.5l4.3-2.5   c0.2-0.1,0.4,0,0.5,0.1l0.1,0.2C113.3,172.8,113.2,173.1,113,173.2z M113.2,150.6l-0.1,0.2c-0.1,0.2-0.4,0.3-0.5,0.1l-4.3-2.5   c-0.2-0.1-0.3-0.4-0.1-0.5l0.1-0.2c0.1-0.2,0.4-0.3,0.5-0.1l4.3,2.5C113.2,150.2,113.3,150.4,113.2,150.6z M121.3,181.1l-2.5,4.3   c-0.1,0.2-0.4,0.3-0.5,0.1l-0.2-0.1c-0.2-0.1-0.3-0.4-0.1-0.5l2.5-4.3c0.1-0.2,0.4-0.3,0.5-0.1l0.2,0.1   C121.4,180.7,121.4,180.9,121.3,181.1z M121.2,142.7l-0.2,0.1c-0.2,0.1-0.4,0-0.5-0.1l-2.5-4.3c-0.1-0.2,0-0.4,0.1-0.5l0.2-0.1   c0.2-0.1,0.4,0,0.5,0.1l2.5,4.3C121.4,142.3,121.4,142.5,121.2,142.7z M132.9,188.9c0,0.4-0.3,0.7-0.7,0.7h-0.5   c-0.4,0-0.7-0.3-0.7-0.7v-5.2c0-0.4,0.3-0.7,0.7-0.7h0.5c0.4,0,0.7,0.3,0.7,0.7V188.9z M132,165.4c-0.1,0-0.2,0-0.2,0l-4.6,10.9   l-1.7,1l-0.5-1.9l4.6-10.9c-0.8-0.7-1.3-1.7-1.3-2.9c0-1.2,0.6-2.3,1.5-3L124,140l0.4-2.7l1.9,2l5.6,18.5c0,0,0,0,0,0   c2.1,0,3.8,1.7,3.8,3.8C135.8,163.7,134.1,165.4,132,165.4z M145.9,185.4l-0.2,0.1c-0.2,0.1-0.4,0-0.5-0.1l-2.5-4.3   c-0.1-0.2,0-0.4,0.1-0.5l0.2-0.1c0.2-0.1,0.4,0,0.5,0.1l2.5,4.3C146.1,185.1,146.1,185.3,145.9,185.4z M146,138.4l-2.5,4.3   c-0.1,0.2-0.4,0.3-0.5,0.1l-0.2-0.1c-0.2-0.1-0.3-0.4-0.1-0.5l2.5-4.3c0.1-0.2,0.4-0.3,0.5-0.1l0.2,0.1   C146.1,137.9,146.1,138.2,146,138.4z M155.9,175.3l-0.1,0.2c-0.1,0.2-0.4,0.3-0.5,0.1l-4.3-2.5c-0.2-0.1-0.3-0.4-0.1-0.5l0.1-0.2   c0.1-0.2,0.4-0.3,0.5-0.1l4.3,2.5C155.9,174.8,156,175.1,155.9,175.3z M160,161.4v0.5c0,0.4-0.3,0.7-0.7,0.7h-5.2   c-0.4,0-0.7-0.3-0.7-0.7v-0.5c0-0.4,0.3-0.7,0.7-0.7h5.2C159.6,160.6,160,161,160,161.4z M155.8,147.7l0.1,0.2   c0.1,0.2,0,0.4-0.1,0.5l-4.3,2.5c-0.2,0.1-0.4,0-0.5-0.1l-0.1-0.2c-0.1-0.2,0-0.4,0.1-0.5l4.3-2.5   C155.4,147.5,155.6,147.5,155.8,147.7z" id="XMLID_161_"/></g></svg>