<?xml version="1.0" ?><!DOCTYPE svg  PUBLIC '-//W3C//DTD SVG 1.1//EN'  'http://www.w3.org/Graphics/SVG/1.1/DTD/svg11.dtd'><svg enable-background="new 0 0 141.732 141.732" height="141.732px" id="Livello_1" version="1.1" viewBox="0 0 141.732 141.732" width="141.732px" xml:space="preserve" xmlns="http://www.w3.org/2000/svg" xmlns:xlink="http://www.w3.org/1999/xlink"><g id="Livello_24"><path d="M140.488,88.613V86.09L78.213,44.375V76.15c-0.004-0.094-0.009-0.188-0.012-0.283V19.195   c0-6.924-2.146-13.219-5.654-17.955C72.157,0.514,71.219,0,70.121,0c-1.097,0-2.036,0.516-2.426,1.239   c-3.506,4.736-5.654,11.031-5.654,17.955c0,0.922,0.045,1.83,0.119,2.729v22.529L0,86.09v2.522l61.975-8.342   c-0.026,1.412-0.039,2.834-0.039,4.267c0,11.11,0.78,21.625,2.179,30.995l-13.19,17.998v1.334l16.16-4.432v-0.027   c0.922,3.56,1.949,6.82,3.066,9.732c1.114-2.902,2.136-6.15,3.055-9.693l16.116,4.42v-1.334l-13.146-17.938   c1.402-9.389,2.189-19.924,2.189-31.059c0-1.438-0.014-2.871-0.04-4.291L140.488,88.613z"/></g><g id="Livello_1_1_"/></svg>